<?xml version="1.0" encoding="UTF-8"?><svg id="Layer_2" xmlns="http://www.w3.org/2000/svg" width="113px" height="40px" viewBox="0 0 113 40"><defs><style>.cls-1{fill:#003eb0;}.cls-2{fill:#fff;}</style></defs><path class="cls-1" d="m5.07,0C2.27,0,0,2.27,0,5.07v29.86c0,2.8,2.27,5.07,5.07,5.07h102.53c2.8,0,5.07-2.27,5.07-5.07V5.07c0-2.8-2.27-5.07-5.07-5.07H5.07Z"/><path class="cls-2" d="m89.01,19.15c-2.8,0-5.07-2.27-5.07-5.07s2.27-5.07,5.07-5.07,5.07,2.27,5.07,5.07-2.27,5.07-5.07,5.07Zm0-9.15c-2.25,0-4.08,1.83-4.08,4.08s1.83,4.08,4.08,4.08,4.08-1.83,4.08-4.08-1.83-4.08-4.08-4.08Z"/><path class="cls-2" d="m89.01,30.99c-2.8,0-5.07-2.27-5.07-5.07s2.27-5.07,5.07-5.07,5.07,2.27,5.07,5.07-2.27,5.07-5.07,5.07Zm0-9.15c-2.25,0-4.08,1.83-4.08,4.08s1.83,4.08,4.08,4.08,4.08-1.83,4.08-4.08-1.83-4.08-4.08-4.08Z"/><path class="cls-2" d="m100.85,19.15c-2.8,0-5.07-2.27-5.07-5.07s2.28-5.07,5.07-5.07,5.07,2.28,5.07,5.07-2.27,5.07-5.07,5.07Z"/><path class="cls-2" d="m100.84,30.99c-2.8,0-5.07-2.27-5.07-5.07s2.27-5.07,5.07-5.07,5.07,2.27,5.07,5.07-2.27,5.07-5.07,5.07Zm0-9.15c-2.25,0-4.08,1.83-4.08,4.08s1.83,4.08,4.08,4.08,4.08-1.83,4.08-4.08-1.83-4.08-4.08-4.08Z"/><path class="cls-2" d="m16.53,18.24c0-2.53-1.65-3.48-4.13-3.48h-4.52v10.43h2.58v-3.38h1.74c2.54,0,4.32-.94,4.32-3.61m-2.86.11c0,.79-.49,1.41-1.44,1.41h-1.87v-2.78h1.91c.93,0,1.39.68,1.39,1.37"/><path class="cls-2" d="m36.68,14.77h-3.07s-2.16,4.21-2.35,4.82c-.2-.61-2.35-4.82-2.35-4.82h-3.1l4.14,7.29v3.14h2.58v-3.19l4.14-7.25Z"/><path class="cls-2" d="m46.66,21.83c0-1.18-.56-1.91-1.5-2.31.7-.4,1.26-.91,1.26-2.04,0-1.75-1.07-2.72-3.68-2.72h-4.84v10.43h4.91c2.65,0,3.85-1.24,3.85-3.37m-2.7-3.89c0,.5-.32.99-1.15.99h-2.33v-2.09h2.33c.91,0,1.15.63,1.15,1.09m.23,4.11c0,.6-.44,1.26-1.17,1.26h-2.54v-2.48h2.55c.7,0,1.15.61,1.15,1.23"/><path class="cls-2" d="m68.12,22.7l-2.48-1.3c-.58.99-.97,1.7-1.89,1.7-1.27,0-2.11-1.49-2.11-3.09s.85-3.1,2.08-3.1c.97,0,1.33.83,1.71,1.81l2.66-1.03c-.73-1.98-1.75-3.09-4.35-3.09-2.84,0-4.84,2.04-4.84,5.41,0,3.1,1.68,5.4,4.82,5.4,2.51,0,3.69-1.33,4.4-2.71"/><path class="cls-2" d="m78.96,25.2l-3.56-6.46,3.2-3.98h-3.06s-2.87,3.79-3.31,4.47c.03-.76.05-4.47.05-4.47h-2.58v10.43h2.58v-3.06l1.53-1.64,2.28,4.7h3.07-.2Z"/><path class="cls-2" d="m58.33,25.3l-3.86-10.53h-2.97l-3.86,10.53h2.93l.69-1.99h3.43l.69,1.99h2.96Zm-4.13-3.97h-2.42s1.05-3.7,1.18-4.41c.14.7,1.18,4.41,1.18,4.41"/><path class="cls-2" d="m26.96,25.3l-3.86-10.53h-2.97l-3.86,10.53h2.93l.69-1.99h3.43l.69,1.99h2.96Zm-4.17-3.97h-2.38s1.05-3.7,1.18-4.41c.14.7,1.18,4.41,1.18,4.41"/></svg>